<svg width="352" height="269" viewBox="0 0 352 269" fill="none" xmlns="http://www.w3.org/2000/svg">
<rect width="351" height="268.822" fill="#151515"/>
<rect x="0.5" y="0.5" width="350" height="267.822" fill="#151515"/>
<rect x="0.5" y="0.5" width="350" height="268" fill="#151515"/>
<g opacity="0.4">
<rect x="1.1377" y="1.1377" width="348.957" height="53.2365" fill="#06060A"/>
<rect x="1.1377" y="54.3741" width="348.957" height="53.2365" fill="#151515"/>
<rect x="1.1377" y="107.611" width="348.957" height="53.2365" fill="#06060A"/>
<rect x="1.1377" y="160.847" width="348.957" height="53.2365" fill="#151515"/>
<rect x="1.1377" y="214.083" width="348.957" height="53.2365" fill="#06060A"/>
</g>
<path d="M222.577 8.18408e-06C222.577 25.851 201.552 46.8074 175.616 46.8074C149.68 46.8074 128.655 25.851 128.655 0" stroke="#5A5A5A" stroke-width="1.13768"/>
<path d="M70.3804 189.083V188.514H69.8115V189.083H70.3804ZM280.851 189.083H281.42V188.514H280.851V189.083ZM70.3804 189.652H280.851V188.514H70.3804V189.652ZM280.283 189.083V268.721H281.42V189.083H280.283ZM70.9492 268.721V189.083H69.8115V268.721H70.9492Z" fill="#5A5A5A"/>
<path d="M127.833 236.86V236.292H127.265V236.86H127.833ZM223.399 236.86H223.968V236.292H223.399V236.86ZM127.833 237.429H223.399V236.292H127.833V237.429ZM222.83 236.86V268.716H223.968V236.86H222.83ZM128.402 268.716V236.86H127.265V268.716H128.402Z" fill="#5A5A5A"/>
<ellipse cx="175.428" cy="214.628" rx="2.08715" ry="2.08033" fill="#5A5A5A" stroke="#5A5A5A" stroke-width="0.568841"/>
<g filter="url(#filter0_d_2_4386)">
<path d="M134.739 189.29C142.676 174.899 158.03 165.146 175.67 165.146C193.31 165.146 208.664 174.899 216.601 189.29H217.25C209.26 174.573 193.636 164.577 175.67 164.577C157.704 164.577 142.08 174.573 134.091 189.29H134.739Z" fill="#5A5A5A"/>
<path d="M134.739 189.29C142.676 174.899 158.03 165.146 175.67 165.146C193.31 165.146 208.664 174.899 216.601 189.29H217.25C209.26 174.573 193.636 164.577 175.67 164.577C157.704 164.577 142.08 174.573 134.091 189.29H134.739Z" stroke="#5A5A5A" stroke-width="0.568841"/>
</g>
<rect x="0.5" y="0.5" width="350" height="268" stroke="#5A5A5A"/>
<rect x="0.5" y="0.5" width="350" height="267.822" stroke="#8D8D8D"/>
<defs>
<filter id="filter0_d_2_4386" x="131.337" y="164.293" width="88.6662" height="29.8319" filterUnits="userSpaceOnUse" color-interpolation-filters="sRGB">
<feFlood flood-opacity="0" result="BackgroundImageFix"/>
<feColorMatrix in="SourceAlpha" type="matrix" values="0 0 0 0 0 0 0 0 0 0 0 0 0 0 0 0 0 0 127 0" result="hardAlpha"/>
<feOffset dy="2.27536"/>
<feGaussianBlur stdDeviation="1.13768"/>
<feComposite in2="hardAlpha" operator="out"/>
<feColorMatrix type="matrix" values="0 0 0 0 0 0 0 0 0 0 0 0 0 0 0 0 0 0 0.25 0"/>
<feBlend mode="normal" in2="BackgroundImageFix" result="effect1_dropShadow_2_4386"/>
<feBlend mode="normal" in="SourceGraphic" in2="effect1_dropShadow_2_4386" result="shape"/>
</filter>
</defs>
</svg>
