<svg width="16" height="16" viewBox="0 0 16 16" fill="none" xmlns="http://www.w3.org/2000/svg">
<path d="M13.8487 6.73784C13.2671 4.03266 10.8622 2.00562 7.98339 2.00562C5.10456 2.00562 2.69972 4.03266 2.11809 6.73784C2.02961 7.14652 1.9834 7.57155 1.9834 8.00673C1.9834 8.36241 2.01439 8.7102 2.07357 9.04899C2.56671 11.8663 5.0251 14.0078 7.98339 14.0078C10.9417 14.0078 13.4001 11.8663 13.8932 9.04899C13.9524 8.7102 13.9834 8.36241 13.9834 8.00673C13.9834 7.57155 13.9372 7.14652 13.8487 6.73784Z" fill="black"/>
<path d="M13.9834 8.00673C13.9834 8.36241 13.9524 8.7102 13.8932 9.04899C13.4001 11.8663 10.9417 14.0078 7.98339 14.0078C5.0251 14.0078 2.56671 11.8663 2.07357 9.04899C2.01439 8.7102 1.9834 8.36241 1.9834 8.00673C1.9834 7.57155 2.02961 7.14652 2.11809 6.73784C2.69972 4.03266 5.10456 2.00562 7.98339 2.00562C10.8622 2.00562 13.2671 4.03266 13.8487 6.73784C13.9372 7.14652 13.9834 7.57155 13.9834 8.00673Z" fill="white"/>
<path d="M7.99437 13.0493C10.7742 13.0493 13.0278 10.7954 13.0278 8.01497C13.0278 5.23456 10.7742 2.98059 7.99437 2.98059C5.21448 2.98059 2.96094 5.23456 2.96094 8.01497C2.96094 10.7954 5.21448 13.0493 7.99437 13.0493Z" fill="white"/>
<path d="M13.1321 6.76678C13.0633 6.47705 12.9703 6.19745 12.8548 5.92858C12.8306 5.86995 12.8047 5.81245 12.7776 5.75495C12.6626 5.51032 12.5296 5.27637 12.3797 5.05372C11.9959 4.48269 11.5033 3.99059 10.9318 3.60615C10.7103 3.45733 10.4764 3.3243 10.2324 3.21043C10.1755 3.18337 10.118 3.15801 10.06 3.13377C9.4214 2.85981 8.71861 2.70874 7.98086 2.70874C7.24313 2.70874 6.54032 2.85981 5.90234 3.1332C5.84372 3.15744 5.78625 3.18337 5.72876 3.21043C5.48473 3.3243 5.25138 3.45733 5.02934 3.60615C4.45842 3.99059 3.96584 4.48269 3.58203 5.05372C3.43212 5.27637 3.29911 5.51087 3.18414 5.75553C3.15709 5.813 3.13116 5.8705 3.10693 5.92913C2.99139 6.19745 2.89839 6.4776 2.82963 6.76678C2.73382 7.16476 2.68311 7.5802 2.68311 8.00749C2.68311 8.37443 2.7203 8.7324 2.79188 9.07793C2.86345 9.42856 2.96997 9.76677 3.10749 10.0881C3.13172 10.1456 3.15765 10.2031 3.18414 10.2594C3.29911 10.5041 3.43212 10.7386 3.58203 10.9612C3.96584 11.5323 4.45842 12.0244 5.02934 12.4088C5.25138 12.5576 5.48473 12.6907 5.72876 12.8045C5.78567 12.8316 5.84316 12.8575 5.90178 12.8818C6.53977 13.1551 7.24255 13.3062 7.98086 13.3062C8.71917 13.3062 9.42253 13.1551 10.0611 12.8812C10.1191 12.857 10.176 12.831 10.2324 12.8045C10.4764 12.6907 10.7103 12.5576 10.9318 12.4088C11.5033 12.0244 11.9959 11.5323 12.3797 10.9612C12.5296 10.7386 12.6626 10.5047 12.7776 10.26C12.8041 10.2031 12.83 10.1456 12.8542 10.0875C12.9918 9.76564 13.0983 9.42856 13.1698 9.07793C13.2414 8.7324 13.2786 8.37443 13.2786 8.00749C13.2786 7.5802 13.2279 7.16476 13.1321 6.76678ZM10.1901 12.1946C9.65136 11.9928 9.06465 11.6828 8.46782 11.2848C8.40807 11.2448 8.34776 11.2042 8.28746 11.1625C8.27112 11.1512 8.25478 11.1399 8.23786 11.1281C8.2356 11.1264 8.23392 11.1253 8.23223 11.1242C8.07781 11.03 7.88393 11.03 7.72951 11.1242C7.7278 11.1253 7.72612 11.1264 7.72386 11.1281C7.70752 11.1394 7.69118 11.1512 7.67484 11.1619C7.61453 11.2042 7.55423 11.2448 7.49393 11.2848C6.89707 11.6822 6.31039 11.9928 5.7716 12.1946C4.93128 11.7493 4.24086 11.0588 3.79563 10.2189C3.81254 10.1738 3.83001 10.1275 3.84861 10.0813C3.97936 9.75493 4.14393 9.4184 4.33895 9.07793C4.45053 8.88346 4.57169 8.68785 4.70188 8.4917C4.71148 8.47759 4.72048 8.46351 4.73006 8.44941C4.77966 8.37557 4.83038 8.30172 4.88279 8.22846C4.95551 8.08809 4.95383 7.9201 4.87887 7.78088C4.83546 7.71944 4.79263 7.65799 4.75148 7.59654C4.73458 7.57173 4.71824 7.54749 4.70188 7.52326C4.53338 7.2696 4.38007 7.01707 4.24426 6.76678C4.08983 6.48437 3.95738 6.2059 3.84861 5.93363C3.83001 5.88742 3.81254 5.84119 3.79563 5.79611C4.24086 4.95619 4.93128 4.26567 5.7716 3.82035C6.30981 4.02215 6.89707 4.33275 7.49393 4.73016C7.53224 4.75551 7.57057 4.78145 7.60946 4.80795L7.61566 4.8119C7.65792 4.84119 7.70076 4.87051 7.74359 4.90095C7.89069 4.98438 8.07105 4.98438 8.21813 4.90095C8.26097 4.87051 8.3038 4.84119 8.34608 4.8119L8.35227 4.80795C8.39115 4.78145 8.42949 4.75551 8.46782 4.73016C9.06465 4.33219 9.65136 4.02215 10.1901 3.82035C11.0305 4.26567 11.7209 4.95619 12.1661 5.79611C12.1492 5.84119 12.1317 5.88742 12.1131 5.93363C12.0038 6.2059 11.8713 6.48437 11.7175 6.76678C11.5811 7.01707 11.4284 7.27017 11.2598 7.52383C11.2429 7.5492 11.226 7.57457 11.2086 7.59936L11.2063 7.60218C11.1663 7.66136 11.1252 7.72112 11.0829 7.78031C11.0823 7.78031 11.0817 7.78144 11.0817 7.78199C11.0079 7.92067 11.0062 8.08696 11.0772 8.22675C11.0772 8.22733 11.0778 8.22788 11.0784 8.22846C11.1313 8.30286 11.1832 8.3767 11.2328 8.45112L11.2339 8.45225C11.2424 8.4652 11.2508 8.47817 11.2598 8.49114C11.39 8.6873 11.5112 8.88346 11.6222 9.07793C11.8172 9.4184 11.9824 9.75493 12.1131 10.0813C12.1317 10.1275 12.1492 10.1738 12.1661 10.2189C11.7209 11.0588 11.0305 11.7493 10.1901 12.1946Z" fill="black"/>
<path d="M9.89039 7.2537L8.26499 6.07276C8.09591 5.94987 7.86709 5.94987 7.69746 6.07276L6.07206 7.2537C5.90299 7.37659 5.83197 7.59473 5.89678 7.79317L6.51785 9.70466C6.58267 9.90363 6.76753 10.0384 6.97662 10.0384H8.98582C9.19491 10.0384 9.38033 9.90363 9.44458 9.70466L10.0657 7.79317C10.1305 7.59417 10.0595 7.37659 9.89039 7.2537Z" fill="black"/>
</svg>
